<?xml version="1.0" encoding="UTF-8"?>
<svg id="Layer_1" xmlns="http://www.w3.org/2000/svg" viewBox="145 125 765 280">
  <defs>
    <style>
      .cls-1 {
        letter-spacing: 0em;
      }

      .cls-1, .cls-2, .cls-3, .cls-4, .cls-5, .cls-6, .cls-7, .cls-8, .cls-9, .cls-10, .cls-11, .cls-12, .cls-13, .cls-14, .cls-15, .cls-16, .cls-17, .cls-18, .cls-19, .cls-20, .cls-21, .cls-22, .cls-23, .cls-24, .cls-25, .cls-26, .cls-27, .cls-28 {
        fill: #274881;
      }

      .cls-2 {
        letter-spacing: 0em;
      }

      .cls-3 {
        letter-spacing: 0em;
      }

      .cls-29 {
        font-family: DMSans18pt-Bold, 'DM Sans 18pt';
        font-size: 25.46px;
      }

      .cls-29, .cls-28 {
        font-weight: 700;
      }

      .cls-4 {
        letter-spacing: 0em;
      }

      .cls-5 {
        letter-spacing: 0em;
      }

      .cls-6 {
        letter-spacing: 0em;
      }

      .cls-7 {
        letter-spacing: 0em;
      }

      .cls-8 {
        letter-spacing: 0em;
      }

      .cls-9 {
        letter-spacing: -.01em;
      }

      .cls-10 {
        letter-spacing: -.01em;
      }

      .cls-11 {
        letter-spacing: 0em;
      }

      .cls-12 {
        letter-spacing: -.02em;
      }

      .cls-13 {
        letter-spacing: -.01em;
      }

      .cls-14 {
        letter-spacing: -.04em;
      }

      .cls-15 {
        letter-spacing: -.11em;
      }

      .cls-16 {
        letter-spacing: -.02em;
      }

      .cls-17, .cls-30 {
        letter-spacing: -.02em;
      }

      .cls-31 {
        letter-spacing: 0em;
      }

      .cls-31, .cls-32, .cls-33, .cls-34, .cls-30, .cls-35, .cls-36, .cls-37, .cls-38 {
        fill: #47ad48;
      }

      .cls-18 {
        letter-spacing: -.06em;
      }

      .cls-19, .cls-38 {
        letter-spacing: 0em;
      }

      .cls-20 {
        letter-spacing: 0em;
      }

      .cls-21 {
        letter-spacing: 0em;
      }

      .cls-22 {
        letter-spacing: 0em;
      }

      .cls-24 {
        letter-spacing: -.08em;
      }

      .cls-39 {
        letter-spacing: .49em;
      }

      .cls-40 {
        letter-spacing: .49em;
      }

      .cls-41 {
        letter-spacing: .51em;
      }

      .cls-42 {
        letter-spacing: .49em;
      }

      .cls-43 {
        letter-spacing: .52em;
      }

      .cls-44, .cls-45 {
        fill: #c0b931;
      }

      .cls-46 {
        fill: #fff;
      }

      .cls-45, .cls-27 {
        fill-rule: evenodd;
      }

      .cls-25 {
        letter-spacing: 0em;
      }

      .cls-26 {
        letter-spacing: 0em;
      }

      .cls-28 {
        font-family: SignikaNegative-Bold, 'Signika Negative';
        font-size: 169.62px;
      }

      .cls-32 {
        font-family: SignikaNegative-Medium, 'Signika Negative';
        font-size: 66.13px;
        font-weight: 500;
      }

      .cls-33 {
        letter-spacing: 0em;
      }

      .cls-34 {
        letter-spacing: 0em;
      }

      .cls-35 {
        letter-spacing: -.02em;
      }

      .cls-37 {
        letter-spacing: 0em;
      }

      .cls-47 {
        letter-spacing: .01em;
      }

      .cls-48 {
        letter-spacing: .04em;
      }

      .cls-49 {
        letter-spacing: .01em;
      }

      .cls-50 {
        letter-spacing: .01em;
      }
    </style>
  </defs>
  <rect class="cls-46" width="1051.5" height="521.1"/>
  <g>
    <text class="cls-32" transform="translate(446.85 344.76) scale(1.15 1)"><tspan class="cls-42" x="0" y="0">A</tspan><tspan class="cls-39" x="73.36" y="0">F</tspan><tspan class="cls-40" x="140.53" y="0">R</tspan><tspan class="cls-42" x="212.77" y="0">I</tspan><tspan class="cls-41" x="265.03" y="0">C</tspan><tspan class="cls-43" x="338.65" y="0">A</tspan></text>
    <text class="cls-28" transform="translate(440.37 270.44) rotate(-.53) scale(1.17 1)"><tspan class="cls-50" x="0" y="0">H</tspan><tspan class="cls-49" x="117.94" y="0">E</tspan><tspan class="cls-47" x="216.86" y="0">R</tspan><tspan class="cls-48" x="323.21" y="0">I</tspan></text>
    <text class="cls-29" transform="translate(159.47 390.49)"><tspan class="cls-16" x="0" y="0">H</tspan><tspan class="cls-17" x="17.59" y="0">A</tspan><tspan class="cls-26" x="35.06" y="0">R</tspan><tspan class="cls-20" x="51.1" y="0">N</tspan><tspan class="cls-7" x="69.87" y="0">E</tspan><tspan class="cls-9" x="84.56" y="0">S</tspan><tspan class="cls-23" x="99.58" y="0">S</tspan><tspan class="cls-21" x="114.91" y="0">I</tspan><tspan class="cls-25" x="122.01" y="0">N</tspan><tspan class="cls-8" x="140.57" y="0">G </tspan><tspan class="cls-23" x="166.14" y="0">E</tspan><tspan class="cls-2" x="180.96" y="0">DU</tspan><tspan class="cls-12" x="216.42" y="0">C</tspan><tspan class="cls-15" x="234.76" y="0">A</tspan><tspan class="cls-10" x="249.93" y="0">T</tspan><tspan class="cls-23" x="264.83" y="0">I</tspan><tspan class="cls-2" x="271.73" y="0">O</tspan><tspan class="cls-11" x="291.74" y="0">N </tspan><tspan class="cls-25" x="315.95" y="0">R</tspan><tspan class="cls-7" x="332" y="0">E</tspan><tspan class="cls-1" x="346.69" y="0">S</tspan><tspan class="cls-7" x="361.96" y="0">E</tspan><tspan class="cls-17" x="376.65" y="0">A</tspan><tspan class="cls-13" x="394.12" y="0">R</tspan><tspan class="cls-22" x="409.81" y="0">C</tspan><tspan class="cls-4" x="428.72" y="0">H </tspan><tspan class="cls-14" x="452.48" y="0">F</tspan><tspan class="cls-3" x="465.59" y="0">O</tspan><tspan class="cls-5" x="485.61" y="0">R </tspan><tspan class="cls-19" x="507.25" y="0">IM</tspan><tspan class="cls-24" x="537.19" y="0">P</tspan><tspan class="cls-18" x="550.74" y="0">A</tspan><tspan class="cls-6" x="567.16" y="0">C</tspan><tspan class="cls-19" x="585.87" y="0">T</tspan><tspan class="cls-38" x="601.3" y="0" xml:space="preserve"> IN</tspan><tspan class="cls-33" x="633.41" y="0"> </tspan><tspan class="cls-30" x="639.16" y="0">A</tspan><tspan class="cls-34" x="656.63" y="0">F</tspan><tspan class="cls-31" x="670.51" y="0">RI</tspan><tspan class="cls-35" x="693.53" y="0">C</tspan><tspan class="cls-37" x="711.86" y="0">A</tspan></text>
    <g>
      <path class="cls-27" d="M285.78,328.04c-17.1-9-37.98-14.29-60.52-14.29s-42.42,5.03-59.28,13.65l21.29-28.4c26.62-14.16,83.62,5.18,98.51,29.04Z"/>
      <g>
        <path class="cls-36" d="M229.01,203.11l12.98,14.7,25.84,1.03-.71,7.72,8.22,14.54-4.11,11.13,9.5,25.08,9.99,3.85,12.69-10.51,7.53-16.16,8.25-8.19-3.17-13.44,19.85-21.18-1.53-6.79-12.78,1.34s-13.91-20.45-14.24-20.64-1.02-8.63-1.02-8.63l-20.05-4.97-2.68,3.49-9.64-3.25.19-4.43-20.33,1.33-9.72,8.67-12.17,10.11-2.87,15.19Z"/>
        <polygon class="cls-36" points="330.9 244.07 320.55 251.8 321.19 256.15 319.09 264.03 325.51 265.2 333.26 248.26 330.9 244.07"/>
      </g>
      <path class="cls-27" d="M290.85,328.04c17.1-9,37.98-14.29,60.52-14.29,22,0,42.42,5.03,59.28,13.65l-21.29-28.4c-26.62-14.16-83.62,5.18-98.51,29.04Z"/>
      <path class="cls-45" d="M407.55,335c-16.94-8.45-36.86-12.91-57.62-12.91-22.76,0-44.4,5.37-62.04,15.26-17.51-9.89-39.01-15.26-61.61-15.26-20.61,0-40.39,4.46-57.21,12.91l-1.15.58,3.72,4.34c16.02-8.04,34.93-12.3,54.65-12.3,22.84,0,44.47,5.69,61.61,16.15,17.26-10.45,39.04-16.15,62.04-16.15,19.86,0,38.89,4.26,55.03,12.3l3.74-4.34-1.16-.58Z"/>
      <path class="cls-44" d="M216.58,214.82c0-28.19,11.55-53.7,30.18-72.01,0,0,0,0-.01,0,0,0,0,0,0,0-30.27,15.67-50.13,42.08-50.13,72.01s19.88,56.35,50.17,72.03c-18.64-18.31-30.2-43.83-30.2-72.03Z"/>
      <path class="cls-44" d="M355.88,214.82c0-28.19-11.55-53.7-30.18-72.01,0,0,0,0,.01,0,0,0,0,0,0,0,30.27,15.67,50.13,42.08,50.13,72.01,0,29.93-19.88,56.35-50.17,72.03,18.64-18.31,30.2-43.83,30.2-72.03Z"/>
    </g>
  </g>
</svg>